<?xml version="1.0" encoding="UTF-8"?>
<svg xmlns="http://www.w3.org/2000/svg" width="92" height="46" viewBox="0 0 92 46" role="img" aria-label="M&amp;K logo">
  <title>M&amp;K Logo</title>
  <path d="M68.88 11.04 L68.77 34.69 L78.11 34.75 L78.11 19.41 L80.15 17.96 L87.82 34.69 L90.45 34.69 L82.24 16.78 L88.94 11.09 L86.15 11.09 L78.16 17.21 L78.05 11.04 Z M8.47 10.88 L1.50 34.69 L3.86 34.69 L6.76 24.23 L13.25 32.82 L19.90 23.91 L22.53 34.75 L32.08 34.75 L26.45 10.88 L17.59 23.43 Z M42.43 12.43 L40.34 16.24 L40.55 18.92 L42.00 22.57 L38.95 24.93 L37.50 27.99 L37.66 31.10 L38.84 33.25 L40.55 34.53 L43.18 35.12 L45.60 34.86 L48.44 33.41 L49.78 34.75 L61.05 34.75 L55.09 26.65 L57.51 24.61 L60.19 23.54 L60.57 21.93 L58.79 21.50 L54.02 24.98 L51.12 20.16 L54.02 16.78 L54.13 14.58 L53.27 12.81 L51.34 11.41 L48.76 10.82 L44.85 11.20 Z M42.65 24.13 L47.48 31.64 L46.30 32.55 L42.70 32.82 L40.29 30.78 L40.29 27.02 Z M47.42 12.59 L50.21 12.86 L51.71 14.26 L51.87 16.35 L50.48 18.39 Z" fill="#035A56" fill-rule="evenodd"/>
</svg>
